# xmcd CD database file
#
# Track frame offsets:
#	150
#	34478
#	53553
#	75953
#	94072
#	110636
#	134673
#	154717
#	169213
#	181410
#	197092
#	212464
#	232056
#	246112
#	267386
#	284449
#
# Disc length: 4086 seconds
#
# Revision: 0
# Processed by: cddbd v1.5.2PL0 Copyright (c) Steve Scherf et al.
# Submitted via: CDex 1.77
#
DISCID=e50ff410
DTITLE=Country Roads - Country Roads 2_2
DYEAR=2009
DGENRE=Country
TTITLE0=Wynonna Judd - Free Bird
TTITLE1=Blackie and The Rodeo Kings - Water or Gazoline
TTITLE2=Molly Hatchet - Flirtin' with disaster
TTITLE3=Clay Davidson - We're all here
TTITLE4=Charlie Daniels Band - Drinkin' my baby goodbye
TTITLE5=Montgomery Gentry - Good Clean Fun
TTITLE6=Jaded Sun - Crave
TTITLE7=Jo Dee Messina - Shine
TTITLE8=Seasick Steve - Walking Man
TTITLE9=Van Zant - Plain Jane
TTITLE10=Georgia Satellites - Keep your hands to yourself
TTITLE11=American Dog - Rock-N-Roll Dog
TTITLE12=Alabama - Southern Star
TTITLE13=Alannah Myles - Black Velvet
TTITLE14=Confederate Railroad - I am just a rebel
TTITLE15=The Allman Brothers Band - Shine it On
EXTD=YEAR: 2009
EXTT0=
EXTT1=
EXTT2=
EXTT3=
EXTT4=
EXTT5=
EXTT6=
EXTT7=
EXTT8=
EXTT9=
EXTT10=
EXTT11=
EXTT12=
EXTT13=
EXTT14=
EXTT15=
PLAYORDER=
